<svg width="36" height="24" viewBox="0 0 36 24" fill="none" xmlns="http://www.w3.org/2000/svg">
<g clip-path="url(#clip0_36187_162)">
<path d="M750.284 0C740.642 0 740.642 9.88235 731.067 9.88235C721.492 9.88235 721.425 0 711.85 0C702.276 0 702.209 9.88235 692.634 9.88235C682.992 9.88235 682.992 0 673.35 0C663.709 0 663.709 9.88235 654.134 9.88235C644.492 9.88235 644.492 0 634.917 0C625.276 0 625.276 9.88235 615.701 9.88235C606.126 9.88235 605.858 0 596.283 0C586.642 0 586.642 9.88235 577.067 9.88235C567.492 9.88235 567.358 0 557.783 0C548.142 0 548.142 9.88235 538.567 9.88235C528.925 9.88235 528.925 0 519.283 0C509.642 0 509.642 9.88235 500.067 9.88235C490.425 9.88235 490.425 0 480.85 0C471.276 0 471.142 9.88235 461.5 9.88235C451.858 9.88235 451.858 0 442.283 0C432.642 0 432.642 9.88235 423.067 9.88235C413.425 9.88235 413.425 0 403.783 0C394.142 0 394.142 9.88235 384.567 9.88235C374.925 9.88235 374.925 0 365.35 0C355.709 0 355.709 9.88235 346.134 9.88235C336.492 9.88235 336.492 0 326.917 0C317.276 0 317.276 9.88235 307.634 9.88235C297.992 9.88235 297.992 0 288.35 0C278.709 0 278.709 9.88235 269.067 9.88235C259.425 9.88235 259.425 0 249.783 0C240.142 0 240.142 9.88235 230.5 9.88235C220.858 9.88235 220.858 0 211.217 0C201.575 0 201.575 9.88235 191.933 9.88235C182.291 9.88235 182.291 0 172.65 0C163.008 0 163.008 9.88235 153.433 9.88235C143.791 9.88235 143.791 0 134.15 0C124.508 0 124.508 9.88235 114.866 9.88235C105.224 9.88235 105.224 0 95.5826 0C85.9409 0 85.9409 9.88235 76.2991 9.88235C66.6574 9.88235 66.6574 0 57.0157 0C47.6417 0 47.6417 9.88235 38 9.88235C28.3583 9.88235 28.3583 0 18.7835 0C9.2087 0 9.14174 9.88235 -0.5 9.88235V24H769.5V9.88235C759.858 9.88235 759.858 0 750.284 0Z" fill="white"/>
</g>
<defs>
<clipPath id="clip0_36187_162">
<rect width="36" height="24" fill="white"/>
</clipPath>
</defs>
</svg>
